<?xml version="1.0" standalone="no"?>
<!DOCTYPE svg PUBLIC "-//W3C//DTD SVG 20010904//EN"
 "http://www.w3.org/TR/2001/REC-SVG-20010904/DTD/svg10.dtd">
<svg version="1.0" xmlns="http://www.w3.org/2000/svg"
 width="1512.000000pt" height="1512.000000pt" viewBox="0 0 1512.000000 1512.000000"
 preserveAspectRatio="xMidYMid meet">
<metadata>
Created by potrace 1.11, written by Peter Selinger 2001-2013
</metadata>
<g transform="translate(0.000000,1512.000000) scale(0.100000,-0.100000)"
fill="#000000" stroke="none">
<path d="M9269 12846 c-2 -2 -38 -7 -79 -10 -103 -9 -155 -15 -225 -27 -33 -6
-71 -13 -85 -15 -14 -3 -36 -7 -50 -9 -14 -3 -38 -8 -55 -11 -124 -22 -412
-114 -585 -187 -321 -135 -675 -360 -911 -578 -159 -146 -283 -278 -369 -389
-19 -25 -37 -47 -40 -50 -4 -3 -24 -30 -46 -60 -123 -168 -202 -295 -284 -458
-46 -89 -55 -101 -69 -90 -9 7 -45 38 -81 68 -36 31 -85 70 -110 88 -25 18
-66 48 -92 67 -26 19 -50 35 -53 35 -4 0 -39 20 -78 44 -40 24 -95 54 -122 66
-28 12 -79 36 -115 52 -247 113 -580 177 -895 173 -82 -2 -168 -5 -190 -9 -22
-3 -62 -8 -88 -11 -231 -26 -606 -155 -802 -278 -205 -127 -308 -208 -455
-356 -272 -274 -468 -609 -565 -966 -31 -113 -31 -111 -55 -255 -22 -129 -30
-345 -19 -525 l4 -69 -124 -28 c-695 -155 -1295 -565 -1692 -1154 -72 -108
-70 -104 -136 -224 -89 -162 -217 -477 -237 -585 -2 -11 -9 -38 -15 -60 -18
-69 -49 -227 -56 -290 -4 -33 -9 -69 -12 -80 -9 -37 -12 -499 -3 -560 4 -33
11 -87 15 -120 11 -109 62 -332 103 -460 93 -285 225 -543 400 -785 142 -195
285 -345 502 -527 58 -49 189 -143 199 -143 5 0 11 -4 13 -8 6 -16 180 -116
303 -176 252 -122 507 -204 745 -242 181 -28 258 -35 410 -38 147 -2 361 11
470 29 14 2 43 7 65 10 128 18 436 106 560 160 283 124 477 238 685 404 113
89 321 295 410 404 l64 78 20 -48 c11 -26 51 -108 89 -182 186 -364 437 -663
773 -918 194 -147 452 -290 664 -365 106 -37 199 -67 224 -72 14 -3 29 -7 33
-9 10 -6 192 -44 248 -52 22 -4 47 -8 55 -10 99 -26 610 -27 745 -1 11 2 40 7
65 11 25 3 57 9 72 11 15 2 38 8 52 14 15 5 26 8 26 6 0 -4 49 9 190 47 57 16
202 68 255 92 302 135 492 253 710 439 141 121 341 340 438 481 15 22 36 51
46 64 l19 24 43 -20 c80 -37 278 -99 380 -118 13 -3 37 -7 52 -11 16 -3 38 -7
50 -8 12 -2 46 -6 76 -11 82 -11 126 -14 266 -14 150 -1 184 2 355 24 147 20
403 94 539 156 376 172 627 371 894 709 7 8 30 42 52 75 22 33 43 62 46 65 23
20 157 291 198 402 l33 86 62 23 c54 20 136 55 246 107 217 102 533 353 695
553 73 90 97 122 141 189 119 178 252 459 279 590 4 19 10 40 13 45 4 6 7 15
9 20 11 51 52 260 58 295 10 67 14 464 5 507 -4 21 -11 66 -14 101 -11 107
-75 355 -121 467 -171 417 -412 734 -750 986 -112 84 -331 210 -450 259 -147
61 -297 107 -435 134 -43 8 -90 18 -91 20 0 0 -2 21 -5 46 -3 25 -12 88 -20
140 -9 52 -17 104 -18 115 -33 224 -150 573 -281 840 -90 182 -84 171 -222
380 -160 243 -321 430 -528 618 -114 103 -336 277 -353 277 -6 0 -12 3 -14 8
-3 7 -95 72 -103 72 -3 0 -28 15 -57 34 -242 153 -693 334 -968 386 -25 5 -56
12 -70 15 -58 13 -199 36 -250 41 -30 3 -68 7 -85 10 -34 6 -531 15 -536 10z"/>
</g>
</svg>
