<?xml version="1.0" encoding="UTF-8" standalone="no"?><!DOCTYPE svg PUBLIC "-//W3C//DTD SVG 1.1//EN" "http://www.w3.org/Graphics/SVG/1.1/DTD/svg11.dtd"><svg width="100%" height="100%" viewBox="0 0 1004 571" version="1.1" xmlns="http://www.w3.org/2000/svg" xmlns:xlink="http://www.w3.org/1999/xlink" xml:space="preserve" xmlns:serif="http://www.serif.com/" style="fill-rule:evenodd;clip-rule:evenodd;stroke-linecap:round;stroke-linejoin:round;stroke-miterlimit:1.5;"><rect id="chunnts" x="0.979" y="0.682" width="1002.84" height="570.01" style="fill:none;"/><path id="_-Curve-" serif:id="(Curve)" d="M622,378.01c0,0 183.915,19.119 202,-151.25" style="fill:none;stroke:#585858;stroke-width:5px;"/><g><path d="M720.929,317.045c0,-45.724 -33.532,-83.606 -77.346,-90.413c-6.489,-69.47 -64.932,-123.852 -136.095,-123.852c-54.718,0 -101.908,32.16 -123.755,78.597c-16.411,-15.595 -38.584,-25.185 -63.008,-25.185c-50.537,0 -91.506,40.968 -91.506,91.504c0,3.592 0.23,7.126 0.632,10.608c-53.707,9.217 -94.583,55.973 -94.583,112.31c0,62.957 51.032,113.991 113.988,113.991c36.977,0 69.826,-17.62 90.652,-44.909c16.211,40.719 55.958,69.516 102.459,69.516c38.692,0 72.706,-19.945 92.383,-50.099c11.187,4.877 23.53,7.596 36.512,7.596c40.501,0 74.834,-26.322 86.881,-62.785c36.463,-12.046 62.786,-46.379 62.786,-86.879" style="fill:#c0c0c0;fill-rule:nonzero;"/><path d="M342.598,354.958c0,0 16.57,35.651 86.098,35.213c69.529,-0.438 84.905,-35.213 84.905,-35.213" style="fill:none;stroke:#585858;stroke-width:5px;"/><circle cx="347.601" cy="271.342" r="10.601" style="fill:#585858;"/><circle cx="513.601" cy="271.342" r="10.601" style="fill:#585858;"/></g><g><path d="M864.82,122.815c0,0 -44.371,75.707 -54.893,95.834c-9.486,18.146 13.434,34.234 25.483,13.645" style="fill:none;stroke:#585858;stroke-width:5px;"/><path d="M943.784,213.75c0,0 9.075,-17.572 -14.935,-31.324c-24.01,-13.753 -34.576,2.964 -34.576,2.964c0,0 9.075,-17.571 -14.935,-31.324c-24.01,-13.752 -34.576,2.965 -34.576,2.965c0,0 9.074,-17.572 -14.936,-31.324c-24.009,-13.753 -34.575,2.965 -34.575,2.965l0.018,0.01c0,0 9.075,-17.572 -14.935,-31.324c-24.01,-13.753 -34.576,2.965 -34.576,2.965c0,0 32.802,-41.948 103.485,-9.83c30.161,13.705 29.435,7.347 29.435,7.347c0,0 -5.852,2.591 21.229,21.673c63.465,44.72 43.877,94.237 43.877,94.237" style="fill:#0dcaf2;"/></g></svg>