<svg viewBox="0 0 2343 1421" xmlns="http://www.w3.org/2000/svg" fill-rule="evenodd" clip-rule="evenodd" stroke-linecap="round" stroke-linejoin="round" stroke-miterlimit="1.5"><path id="subscribe" fill="none" d="M.965.822h2341.41v1419.36H.965z"/><g id="rain" fill="none" stroke="#e6e6e6" stroke-width="5"><g id="rain1"><path d="M974.336 733.499l-40.5 70.148" class="raindrop"/><path d="M1030.55 790.428l-40.5 70.148" class="raindrop"/><path d="M926.829 767.647l-40.5 70.149" class="raindrop"/><path d="M1152.18 745.573l-40.5 70.148" class="raindrop"/><path d="M1302.01 767.647l-40.5 70.149" class="raindrop"/><path d="M1191.92 815.721l-40.5 70.149" class="raindrop"/><path d="M1369.01 732.573l-40.5 70.148" class="raindrop"/></g><g id="rain2"><path d="M1029.43 710.499l-40.5 70.148" class="raindrop"/><path d="M1121.68 710.499l-40.5 70.148" class="raindrop"/><path d="M1214.18 732.573l-40.5 70.148" class="raindrop"/><path d="M1267.18 710.499l-40.5 70.148" class="raindrop"/><path d="M1410.93 715.63l-40.5 70.148" class="raindrop"/></g></g><g id="cloud"><path d="M1442.63 721.548c0-45.724-33.532-83.606-77.346-90.413-6.489-69.47-64.932-123.852-136.095-123.852-54.718 0-101.908 32.16-123.755 78.597-16.411-15.595-38.584-25.185-63.008-25.185-50.537 0-91.506 40.968-91.506 91.504 0 3.592.23 7.126.632 10.608-53.707 9.217-94.583 55.973-94.583 112.31 0 62.957 51.032 113.991 113.988 113.991 36.977 0 69.826-17.62 90.652-44.909 16.211 40.719 55.958 69.516 102.459 69.516 38.692 0 72.706-19.945 92.383-50.099a91.133 91.133 0 0 0 36.512 7.596c40.501 0 74.834-26.322 86.881-62.785 36.463-12.046 62.786-46.379 62.786-86.879" fill="silver" fill-rule="nonzero"/><path id="mouth" d="M1247.09 785.778s-16.135-35.85-85.664-36.257c-69.528-.407-85.327 34.178-85.327 34.178" fill="none" stroke="#585858" stroke-width="5"/><circle id="righteye" cx="1241.31" cy="675.846" r="10.601" fill="#4d4d4d"/><circle id="lefteye" cx="1076.1" cy="675.846" r="10.601" fill="#4d4d4d"/></g></svg>